<?xml version="1.0" standalone="no"?>
<!DOCTYPE svg PUBLIC "-//W3C//DTD SVG 20010904//EN"
 "http://www.w3.org/TR/2001/REC-SVG-20010904/DTD/svg10.dtd">
<svg version="1.0" xmlns="http://www.w3.org/2000/svg"
 width="400.000000pt" height="145.000000pt" viewBox="0 0 400.000000 145.000000"
 preserveAspectRatio="xMidYMid meet">

<g transform="translate(0.000000,145.000000) scale(0.100000,-0.100000)"
fill="#a21c19" stroke="none">
<path d="M876 1346 l29 -27 -39 16 c-47 19 -138 30 -163 20 -15 -6 -14 -8 12
-19 26 -12 19 -13 -60 -8 -95 5 -165 -12 -165 -40 0 -8 -27 -20 -66 -31 -76
-19 -161 -73 -202 -125 -48 -62 -48 -68 -2 -31 40 32 82 59 92 59 2 0 -26 -30
-62 -67 -95 -99 -144 -202 -164 -348 l-5 -40 19 24 20 23 0 -70 c0 -95 16
-165 54 -237 37 -70 123 -160 186 -194 l45 -24 -51 54 c-52 55 -95 118 -107
154 -5 15 -2 14 11 -5 34 -50 115 -130 162 -160 91 -58 262 -103 435 -114 97
-6 99 -8 -53 36 -40 12 -71 23 -69 25 3 2 44 -3 92 -12 53 -9 153 -15 254 -16
91 0 193 -4 226 -8 33 -5 61 -7 63 -5 2 1 -17 14 -43 29 -25 15 -44 29 -42 31
7 7 152 -35 226 -65 41 -17 75 -31 77 -31 2 0 4 9 4 20 0 38 68 14 132 -48
l37 -35 13 46 c11 43 28 64 28 35 0 -9 3 -9 11 -1 7 7 10 39 8 85 -3 56 -11
87 -31 127 l-28 52 27 -21 c40 -31 40 -16 0 44 -37 56 -94 102 -160 130 -59
24 -179 46 -254 46 -75 0 -143 15 -143 32 0 7 15 8 43 4 118 -19 125 -19 135
0 7 14 4 36 -9 78 -11 33 -21 62 -24 64 -3 3 -15 -4 -28 -15 -75 -69 -177 -53
-177 27 0 57 70 102 100 65 18 -22 38 -18 46 7 l7 22 18 -22 c9 -12 19 -28 21
-34 6 -18 64 27 96 75 15 23 36 66 46 95 15 44 16 55 5 69 -23 27 -95 53 -166
60 -60 5 -73 10 -109 43 -23 21 -64 45 -95 55 -64 21 -96 47 -102 84 -4 25 -4
26 -12 4 -9 -28 -6 -28 -63 1 -26 13 -63 27 -81 31 l-35 7 30 -26z m-104 -92
c35 -18 47 -37 16 -25 -42 16 -128 24 -128 12 0 -6 9 -11 19 -11 11 0 23 -4
26 -10 4 -6 -7 -10 -25 -10 -30 0 -32 -2 -25 -27 3 -16 9 -39 12 -53 l6 -25
-33 30 c-46 42 -84 105 -72 117 29 29 149 30 204 2z m390 -72 c5 -5 0 -16 -11
-26 -15 -14 -24 -15 -40 -7 -11 6 -44 11 -73 11 -56 0 -109 23 -78 34 43 15
183 7 202 -12z m-159 -81 c-2 -3 -18 -10 -36 -17 -17 -6 -40 -15 -50 -19 -17
-7 -18 -4 -11 31 3 22 8 42 10 45 2 4 23 -3 47 -15 24 -11 43 -23 40 -25z
m421 -1 c14 -5 26 -14 26 -19 0 -18 -40 -18 -102 -1 -43 12 -57 19 -43 22 35
9 93 8 119 -2z m-914 -20 c15 -11 40 -24 54 -30 l27 -10 -36 -44 c-19 -24 -58
-81 -85 -126 -28 -46 -50 -78 -50 -73 0 29 43 143 67 178 l27 40 -34 -29 c-54
-44 -112 -119 -149 -191 -18 -36 -35 -64 -37 -62 -10 10 19 119 49 180 18 37
30 67 26 67 -4 0 -26 -21 -48 -47 -40 -46 -41 -46 -25 -13 28 57 64 99 122
141 31 21 57 39 60 39 2 0 16 -9 32 -20z m576 -1 c3 -5 -3 -9 -13 -9 -32 0
-94 -45 -124 -90 -23 -35 -29 -39 -29 -21 0 31 24 83 48 104 35 32 102 41 118
16z m272 -43 c55 -18 64 -32 34 -59 -17 -15 -22 -15 -70 3 -104 40 -196 21
-264 -52 l-38 -42 11 35 c16 46 54 96 93 120 26 17 43 19 106 16 41 -3 99 -12
128 -21z m-636 -78 c-12 -31 -16 -80 -17 -175 0 -72 -3 -129 -7 -127 -15 9
-41 111 -40 158 0 60 24 131 54 163 12 13 22 23 24 23 1 0 -5 -19 -14 -42z
m-119 -65 c-34 -91 -42 -230 -19 -327 15 -61 72 -183 82 -174 2 2 -3 28 -11
58 -8 30 -14 75 -14 100 1 25 3 36 6 25 27 -121 94 -234 176 -295 32 -25 36
-30 17 -25 -107 30 -222 120 -267 210 -14 27 -34 88 -44 135 l-18 85 -1 -120
c-2 -115 -3 -118 -15 -78 -37 115 -26 232 30 343 21 41 89 130 100 130 1 0 -9
-30 -22 -67z m657 50 c-63 -11 -102 -26 -131 -50 -28 -24 -31 -25 -21 -6 24
44 61 63 121 62 31 -1 45 -4 31 -6z m-461 -287 c16 -65 6 -70 -21 -10 -17 39
-22 68 -23 139 0 50 4 104 9 120 8 24 11 8 17 -85 4 -63 12 -137 18 -164z
m166 -81 c49 -72 98 -114 194 -165 l76 -41 -45 6 c-25 3 -77 21 -117 40 -143
70 -227 209 -196 324 5 20 10 14 28 -42 12 -36 39 -91 60 -122z m399 115 c-6
-6 -19 -8 -29 -4 -17 7 -17 8 1 21 21 15 45 0 28 -17z m-196 -108 c34 -18 126
-49 211 -72 83 -21 165 -47 182 -55 72 -38 141 -119 164 -195 6 -20 -2 -15
-50 28 -32 29 -81 65 -109 79 l-51 25 60 -61 c33 -34 57 -61 53 -61 -3 0 -41
20 -83 45 -42 25 -120 64 -173 87 -53 22 -101 44 -105 48 -5 4 17 3 49 -2 31
-5 58 -7 61 -5 2 2 -18 12 -44 22 -125 47 -231 117 -277 183 -38 56 -32 61 13
10 22 -24 66 -59 99 -76z m268 -37 c27 -8 58 -21 69 -29 14 -10 -4 -7 -55 8
-41 13 -84 26 -95 29 -16 4 -15 5 6 6 14 0 48 -6 75 -14z m-629 -87 c42 -51
101 -100 193 -161 66 -44 71 -49 41 -43 -127 24 -265 148 -295 266 l-7 25 18
-24 c10 -14 32 -42 50 -63z m560 -143 c49 -15 120 -62 136 -91 5 -8 -13 -1
-40 15 -52 32 -159 71 -195 71 -19 0 -20 2 -8 10 21 14 49 12 107 -5z"/>
<path d="M3250 770 l0 -140 25 0 c24 0 25 2 25 63 0 49 4 68 18 80 45 41 72 6
72 -89 0 -47 2 -54 20 -54 18 0 20 7 20 84 0 64 -4 88 -16 100 -20 20 -63 20
-92 0 -22 -15 -22 -15 -22 40 0 53 -1 56 -25 56 l-25 0 0 -140z"/>
<path d="M1974 888 c-23 -11 -44 -48 -44 -77 0 -25 29 -48 83 -67 57 -19 75
-38 57 -59 -16 -19 -57 -19 -94 0 -35 19 -33 19 -46 -5 -29 -54 156 -70 192
-16 14 20 8 69 -9 88 -9 10 -40 25 -69 34 -56 16 -74 38 -49 63 13 13 22 13
62 3 37 -10 48 -10 55 0 12 20 10 24 -17 36 -31 14 -92 14 -121 0z"/>
<path d="M3039 871 c-52 -53 -30 -99 61 -129 41 -14 56 -24 58 -40 3 -16 -3
-23 -24 -28 -25 -6 -39 -3 -96 21 -11 4 -20 0 -28 -15 -10 -18 -7 -22 24 -35
37 -16 112 -20 141 -9 27 11 45 62 33 95 -7 22 -23 33 -71 51 -47 18 -63 29
-65 46 -4 28 36 39 78 22 49 -20 73 16 25 38 -48 22 -104 15 -136 -17z"/>
<path d="M2170 749 c0 -44 5 -89 10 -100 13 -24 75 -26 107 -4 19 13 22 13 27
0 3 -8 15 -15 27 -15 19 0 21 4 15 38 -3 20 -6 65 -6 100 0 59 -1 62 -25 62
-24 0 -25 -2 -25 -68 0 -73 -10 -92 -47 -92 -30 0 -43 33 -43 106 0 47 -2 54
-20 54 -18 0 -20 -7 -20 -81z"/>
<path d="M2400 690 l0 -140 25 0 c24 0 25 3 25 57 0 54 1 55 18 40 48 -43 127
-6 138 65 14 85 -80 154 -138 101 -17 -15 -18 -15 -18 0 0 11 -8 17 -25 17
l-25 0 0 -140z m144 78 c21 -29 20 -57 -1 -80 -33 -37 -93 -10 -93 43 0 55 64
80 94 37z"/>
<path d="M2681 816 c-28 -16 -50 -52 -51 -84 0 -31 26 -79 49 -92 32 -17 96
-12 122 9 32 26 17 38 -26 22 -41 -14 -71 -8 -85 20 -10 18 -7 19 70 19 74 0
80 2 80 20 0 29 -27 78 -49 90 -27 14 -81 12 -110 -4z m87 -32 c40 -28 28 -44
-33 -44 -59 0 -67 8 -35 40 24 24 38 25 68 4z"/>
<path d="M2870 730 c0 -100 0 -100 25 -100 23 0 24 3 27 68 3 65 4 67 36 81
19 9 32 22 32 33 0 22 -18 23 -48 2 -20 -14 -22 -14 -22 0 0 10 -9 16 -25 16
l-25 0 0 -100z"/>
<path d="M3499 801 c-39 -39 -40 -96 -3 -140 22 -27 32 -31 74 -31 65 0 100
34 100 97 0 94 -105 139 -171 74z m105 -27 c19 -18 21 -75 4 -92 -7 -7 -24
-12 -38 -12 -35 0 -50 17 -50 56 0 36 22 64 50 64 10 0 26 -7 34 -16z"/>
<path d="M3710 690 l0 -140 25 0 c24 0 25 3 25 57 0 54 1 55 18 40 25 -23 85
-22 106 2 9 10 20 32 25 48 26 91 -64 168 -137 117 -20 -14 -22 -14 -22 0 0 9
-9 16 -20 16 -19 0 -20 -7 -20 -140z m134 84 c19 -18 21 -75 4 -92 -7 -7 -24
-12 -38 -12 -14 0 -31 5 -38 12 -16 16 -16 80 0 96 17 17 54 15 72 -4z"/>
</g>
</svg>
