<?xml version="1.0" standalone="no"?>
<!DOCTYPE svg PUBLIC "-//W3C//DTD SVG 20010904//EN"
 "http://www.w3.org/TR/2001/REC-SVG-20010904/DTD/svg10.dtd">
<svg version="1.0" xmlns="http://www.w3.org/2000/svg"
 width="400.000000pt" height="120.000000pt" viewBox="0 0 400.000000 120.000000"
 preserveAspectRatio="xMidYMid meet">

<g transform="translate(0.000000,120.000000) scale(0.100000,-0.100000)"
fill="#a21c19" stroke="none">
<path d="M753 1082 l19 -21 -48 15 c-26 8 -66 14 -88 14 -41 -1 -41 -1 -16
-15 23 -13 21 -14 -35 -9 -67 7 -145 -9 -145 -30 0 -8 -17 -16 -41 -20 -61
-10 -130 -49 -177 -100 -47 -51 -57 -73 -15 -34 16 14 39 31 53 38 18 9 13 0
-19 -31 -77 -77 -118 -156 -136 -264 -7 -38 -6 -39 12 -23 17 16 18 15 15 -26
-5 -55 21 -155 51 -203 30 -47 103 -115 148 -139 32 -16 31 -14 -17 38 -28 30
-59 70 -68 89 l-17 34 23 -30 c90 -119 245 -187 458 -200 l85 -6 -74 21 c-73
20 -115 39 -56 26 17 -4 130 -11 252 -15 122 -5 227 -12 232 -16 6 -3 11 -4
11 -1 0 3 -17 14 -37 25 -31 17 -34 20 -16 21 19 0 169 -45 221 -66 6 -3 12 1
12 10 0 32 53 14 106 -36 l32 -30 12 36 c8 24 16 33 26 29 25 -9 18 95 -10
150 -25 50 -24 57 6 30 28 -25 21 -2 -16 47 -58 80 -187 129 -336 130 -72 0
-110 8 -110 21 0 5 31 6 70 3 84 -8 92 1 61 70 l-21 45 -36 -24 c-39 -27 -73
-31 -105 -15 -26 15 -26 71 2 96 19 17 22 18 49 2 26 -15 30 -15 42 -1 11 13
14 12 30 -7 l18 -22 34 26 c36 27 89 125 84 154 -5 25 -66 51 -139 58 -50 6
-71 13 -96 34 -17 16 -49 33 -70 40 -57 18 -83 38 -83 63 -1 20 -2 21 -14 5
-12 -16 -15 -16 -52 2 -21 10 -50 22 -64 25 -25 8 -25 7 -7 -13z m-119 -61
c67 -16 64 -30 -5 -25 -45 2 -57 1 -39 -5 l25 -9 -23 -1 c-22 -1 -23 -4 -17
-43 l7 -43 -28 27 c-16 15 -37 41 -47 57 l-18 30 33 10 c43 12 65 12 112 2z
m337 -62 c31 -16 6 -41 -27 -28 -14 5 -43 9 -64 9 -50 0 -77 10 -58 21 19 12
126 11 149 -2z m-130 -57 c24 -9 23 -10 -15 -26 -49 -20 -46 -21 -46 12 0 34
9 45 25 32 6 -5 22 -13 36 -18z m366 -13 c25 -9 26 -11 10 -20 -22 -13 -125
10 -105 23 18 11 62 10 95 -3z m-736 -23 l46 -23 -34 -41 c-19 -23 -49 -67
-68 -98 -46 -76 -47 -40 -1 51 l34 67 -46 -44 c-24 -23 -62 -70 -84 -103 l-40
-60 7 45 c3 25 17 65 31 89 13 24 23 46 20 48 -2 2 -17 -12 -35 -32 -38 -43
-41 -34 -5 18 21 32 108 106 124 107 3 0 26 -11 51 -24z m452 14 c6 0 -12 -12
-40 -26 -29 -14 -61 -39 -72 -57 -25 -39 -29 -12 -5 34 16 31 69 62 92 54 8
-3 19 -5 25 -5z m204 -34 c71 -19 78 -24 58 -46 -16 -17 -20 -17 -58 -4 -51
18 -137 20 -169 3 -13 -6 -35 -23 -50 -37 -33 -30 -36 -20 -8 26 42 68 116 87
227 58z m-504 -87 c-10 -33 -14 -80 -11 -135 2 -70 1 -81 -10 -67 -15 22 -32
80 -32 113 1 34 25 97 46 121 9 10 18 19 19 19 2 0 -4 -23 -12 -51z m-95 -31
c-41 -109 -32 -250 23 -342 26 -44 32 -42 19 5 -6 18 -10 50 -9 69 0 31 2 28
20 -29 17 -52 32 -76 83 -127 34 -35 57 -64 51 -64 -20 0 -111 47 -143 75 -44
37 -83 106 -104 185 l-17 65 2 -93 c2 -83 1 -90 -10 -63 -33 80 -22 204 24
280 15 23 73 91 79 91 1 0 -7 -23 -18 -52z m522 40 c-19 -5 -53 -19 -75 -30
l-40 -21 20 23 c25 28 51 39 95 38 l35 0 -35 -10z m-354 -243 c7 -17 6 -18 -8
-7 -34 27 -48 144 -26 217 12 38 13 35 19 -75 4 -63 10 -124 15 -135z m112
-17 c34 -55 107 -117 178 -150 35 -16 64 -31 64 -33 0 -1 -19 1 -42 6 -146 27
-257 133 -258 245 0 57 12 63 25 11 6 -24 21 -59 33 -79z m352 71 c0 -5 -10
-9 -21 -9 -18 0 -19 2 -9 15 12 15 30 12 30 -6z m-147 -97 c28 -12 99 -33 156
-47 135 -34 168 -48 214 -93 69 -66 94 -139 27 -79 -21 20 -58 46 -82 58 l-43
21 45 -48 45 -47 -57 31 c-32 18 -97 48 -145 68 -49 20 -90 39 -93 42 -3 2 18
2 45 -1 50 -6 49 -6 -33 28 -95 39 -170 91 -197 138 -17 30 -16 30 23 -9 23
-23 66 -51 95 -62z m227 -28 c59 -24 45 -25 -30 -4 -42 12 -55 19 -38 19 15 1
46 -6 68 -15z m-516 -87 c23 -21 74 -59 113 -85 40 -25 71 -47 69 -49 -1 -2
-26 4 -53 13 -70 23 -142 80 -180 144 -37 61 -44 91 -11 45 12 -16 40 -47 62
-68z m491 -107 c17 -11 40 -29 50 -40 16 -18 10 -16 -37 9 -31 16 -83 35 -115
42 -47 11 -53 14 -33 19 33 8 96 -6 135 -30z"/>
<path d="M3177 634 c-4 -4 -7 -72 -7 -151 l0 -143 30 0 30 0 0 68 c0 71 16
102 51 102 30 0 39 -24 39 -97 0 -71 1 -73 25 -73 25 0 25 1 25 88 0 57 -5 95
-13 106 -17 23 -82 24 -107 1 -18 -17 -19 -15 -22 41 -3 51 -6 59 -23 62 -12
2 -24 0 -28 -4z"/>
<path d="M1801 616 c-26 -15 -50 -51 -51 -79 0 -28 43 -64 91 -77 53 -14 69
-26 69 -51 0 -33 -58 -35 -132 -4 -11 4 -20 0 -27 -14 -10 -17 -7 -22 16 -34
97 -50 203 -15 203 65 0 39 -22 58 -90 82 -56 19 -65 25 -65 46 0 23 4 25 45
24 25 0 53 -4 62 -8 12 -5 20 -1 28 14 10 18 7 22 -24 35 -43 18 -93 19 -125
1z"/>
<path d="M2949 601 c-35 -35 -39 -81 -9 -109 11 -10 45 -26 75 -36 59 -18 75
-37 55 -61 -16 -19 -51 -19 -97 0 -32 14 -38 14 -52 1 -21 -22 0 -42 58 -56
36 -8 59 -9 89 -1 46 13 60 26 68 68 8 41 -26 78 -96 100 -47 15 -55 22 -55
43 0 22 5 25 37 28 20 2 47 -2 59 -8 17 -10 23 -9 30 1 15 25 10 37 -22 48
-59 20 -108 14 -140 -18z"/>
<path d="M2365 552 c-11 -2 -28 -11 -37 -20 -16 -14 -18 -14 -18 1 0 11 -8 17
-25 17 l-25 0 0 -150 0 -150 25 0 c24 0 25 3 25 62 l0 61 21 -19 c13 -12 35
-19 61 -19 57 0 88 38 88 105 0 75 -51 124 -115 112z m45 -62 c37 -37 14 -110
-36 -110 -30 0 -64 33 -64 63 0 59 60 87 100 47z"/>
<path d="M2010 462 c0 -107 10 -127 68 -127 24 0 48 7 59 17 18 17 20 16 36
-3 22 -25 42 -20 41 9 0 12 -1 60 -2 107 l-2 85 -30 0 -30 0 0 -73 c0 -80 -9
-97 -51 -97 -34 0 -39 14 -39 101 0 67 -1 69 -25 69 -25 0 -25 -1 -25 -88z"/>
<path d="M2545 527 c-35 -30 -46 -104 -21 -142 39 -59 129 -70 175 -21 l22 23
-23 6 c-13 4 -29 0 -38 -8 -31 -28 -90 -8 -90 31 0 11 17 14 80 14 l80 0 0 31
c0 20 -10 40 -29 60 -25 24 -38 29 -80 29 -38 0 -56 -6 -76 -23z m115 -27 c32
-32 24 -40 -40 -40 -33 0 -60 4 -60 8 0 16 41 52 60 52 11 0 29 -9 40 -20z"/>
<path d="M2770 445 c0 -105 0 -105 25 -105 23 0 24 3 27 73 3 72 3 72 36 82
24 7 32 15 32 32 0 30 -26 30 -57 1 l-23 -21 0 21 c0 15 -6 22 -20 22 -19 0
-20 -7 -20 -105z"/>
<path d="M3439 521 c-24 -24 -29 -38 -29 -76 0 -38 5 -52 29 -75 51 -52 111
-52 162 0 24 23 29 37 29 75 0 38 -5 52 -29 76 -25 25 -37 29 -81 29 -44 0
-56 -4 -81 -29z m121 -31 c39 -39 14 -110 -40 -110 -33 0 -60 31 -60 67 0 28
33 63 60 63 11 0 29 -9 40 -20z"/>
<path d="M3670 400 l0 -150 25 0 c24 0 25 3 25 61 l0 60 26 -20 c31 -25 55
-26 93 -6 58 30 68 138 16 182 -31 27 -96 31 -115 8 -7 -8 -16 -15 -21 -15 -5
0 -9 7 -9 15 0 8 -9 15 -20 15 -19 0 -20 -7 -20 -150z m144 94 c43 -42 21
-114 -34 -114 -52 0 -80 72 -43 112 20 22 56 23 77 2z"/>
</g>
</svg>
